#N canvas 145 23 1063 660 10;
#X declare -lib mrpeach;
#X obj 29 40 adc~;
#X floatatom 27 324 5 0 0 0 - - -;
#X msg 644 146 \; pd dsp 1;
#X obj 717 72 loadbang;
#X floatatom 29 235 5 0 0 0 - - -;
#X floatatom 73 229 5 0 0 0 - - -;
#X obj 34 188 unpack 0 0 0 0;
#X obj 33 120 sigmund~ -npeak 5 peaks;
#X obj 33 148 route 0 1 2 3 4;
#X obj 790 67 import mrpeach;
#X obj 765 241 r bangbang;
#X obj 715 364 sendOSC;
#X msg 764 323 send /bang 1;
#X obj 30 354 gate;
#X msg 33 381 bang;
#X floatatom 36 449 0 0 0 0 - - -;
#X obj 74 424 0;
#X obj 74 398 delay 1000;
#X obj 36 423 1;
#X obj 34 499 counter;
#X obj 34 474 sel 1;
#X obj 99 485 bng 15 250 50 0 empty empty empty 17 7 0 10 -262144 -1
-1;
#X obj 35 523 sel 1;
#X obj 32 558 s bangbang;
#N canvas 816 192 450 300 kakuninkun 0;
#X obj 83 28 inlet;
#X obj 168 31 inlet;
#X obj 305 28 inlet;
#X obj 104 249 print;
#X obj 106 183 gate;
#X msg 188 202 1;
#X obj 81 135 gate;
#X obj 197 93 gate;
#X obj 168 135 expr if($f1 > 0.045 \, 1 \, 0);
#X connect 0 0 6 1;
#X connect 1 0 7 1;
#X connect 2 0 6 0;
#X connect 2 0 7 0;
#X connect 4 0 3 0;
#X connect 5 0 3 0;
#X connect 6 0 4 1;
#X connect 7 0 8 0;
#X connect 8 0 4 0;
#X restore 322 310 pd kakuninkun;
#X obj 396 278 tgl 20 0 empty empty empty 17 7 0 10 -262144 -1 -1 0
1;
#X obj 877 242 key;
#X obj 873 273 sel 49;
#X obj 881 303 bng 15 250 50 0 empty empty empty 17 7 0 10 -262144
-1 -1;
#X msg 715 150 connect 192.168.2.103 9997;
#N canvas 502 171 783 425 signaltester 0;
#X text -122 39 Example:;
#X obj -128 57 cnv 15 170 250 empty empty empty 20 12 0 14 -228992
-66577 0;
#X obj -63 234 cnv 15 100 60 empty empty empty 20 12 0 14 -195568 -66577
0;
#N canvas 0 22 450 300 gemwin 0;
#X obj 132 136 gemwin;
#X obj 67 89 outlet;
#X obj 67 10 inlet;
#X obj 67 41 route create;
#X msg 67 70 set destroy;
#X msg 142 68 set create;
#X msg 198 112 destroy;
#X msg 132 112 create \, 1;
#X connect 2 0 3 0;
#X connect 3 0 4 0;
#X connect 3 0 7 0;
#X connect 3 1 5 0;
#X connect 3 1 6 0;
#X connect 4 0 1 0;
#X connect 5 0 1 0;
#X connect 6 0 0 0;
#X connect 7 0 0 0;
#X restore -58 273 pd gemwin;
#X text -62 233 Create window:;
#X obj -122 90 cnv 15 150 100 empty empty empty 20 12 0 14 -24198 -66577
0;
#X obj -54 169 circle;
#X msg -112 105 draw line;
#X msg -112 126 draw fill;
#X msg -112 148 draw point;
#X obj -54 64 gemhead;
#X floatatom -21 140 5 0 0 2 size - -;
#X obj 87 215 inlet;
#X obj -58 322 outlet;
#X obj -237 -7 inlet;
#X obj -226 51 sel 1;
#X connect 3 0 13 0;
#X connect 7 0 6 0;
#X connect 8 0 6 0;
#X connect 9 0 6 0;
#X connect 10 0 6 0;
#X connect 11 0 6 1;
#X connect 12 0 3 0;
#X connect 14 0 15 0;
#X connect 15 0 8 0;
#X connect 15 1 7 0;
#X restore 319 424 pd signaltester;
#X msg 415 379 destroy;
#X msg 409 351 create;
#X obj 26 302 expr if($f1 > 3000 \, if($f2 > $f3 \, 1 \, 0) \, 0);
#X connect 0 0 7 0;
#X connect 1 0 13 0;
#X connect 1 0 13 1;
#X connect 3 0 2 0;
#X connect 3 0 29 0;
#X connect 4 0 24 0;
#X connect 4 0 33 0;
#X connect 5 0 24 1;
#X connect 5 0 33 1;
#X connect 6 0 4 0;
#X connect 6 1 5 0;
#X connect 7 0 8 0;
#X connect 8 0 6 0;
#X connect 10 0 12 0;
#X connect 12 0 11 0;
#X connect 13 0 14 0;
#X connect 14 0 17 0;
#X connect 14 0 18 0;
#X connect 15 0 20 0;
#X connect 15 0 30 0;
#X connect 16 0 15 0;
#X connect 17 0 16 0;
#X connect 18 0 15 0;
#X connect 19 0 22 0;
#X connect 20 0 19 0;
#X connect 20 1 21 0;
#X connect 21 0 19 2;
#X connect 22 0 23 0;
#X connect 25 0 24 2;
#X connect 26 0 27 0;
#X connect 27 0 28 0;
#X connect 28 0 12 0;
#X connect 29 0 11 0;
#X connect 30 0 31 0;
#X connect 31 0 30 1;
#X connect 32 0 30 1;
#X connect 33 0 1 0;
